Coordinates
version=1
nRows=10
nColumns=40
inDegrees=yes

Units are S.I. units (second, meters, Newtons, ...)
Angles are in degrees.

endheader
time	pelvis_tilt	pelvis_list	pelvis_rotation	pelvis_tx	pelvis_ty	pelvis_tz	hip_flexion_r	hip_adduction_r	hip_rotation_r	knee_angle_r	knee_angle_r_beta	ankle_angle_r	subtalar_angle_r	mtp_angle_r	hip_flexion_l	hip_adduction_l	hip_rotation_l	knee_angle_l	knee_angle_l_beta	ankle_angle_l	subtalar_angle_l	mtp_angle_l	lumbar_extension	lumbar_bending	lumbar_rotation	arm_flex_r	arm_add_r	arm_rot_r	elbow_flex_r	pro_sup_r	wrist_flex_r	wrist_dev_r	arm_flex_l	arm_add_l	arm_rot_l	elbow_flex_l	pro_sup_l	wrist_flex_l	wrist_dev_l
      2.12000000	     -3.18849192	     -2.85801877	     -7.08011974	      0.75297734	      0.92777567	      0.44024120	     25.55710753	     -0.79497913	    -14.06004325	     10.31238057	     10.31238057	      3.30741248	      8.14038563	      7.83942084	      4.22342625	     -2.25997845	    -15.76205664	     16.01730798	     16.01730798	     15.54051087	     -8.90274702	     -7.51789761	     -8.81682409	      3.67224124	      0.50335284	    -11.49612964	    -13.39924594	    -13.35270069	     24.36680794	     47.38142514	      0.00000000	      0.00000000	     18.44669562	    -20.91797204	     -4.68953007	     71.05638180	     46.99249562	      0.00000000	      0.00000000
      2.13357143	     -3.10102781	     -2.76724958	     -7.20226405	      0.75408140	      0.92732904	      0.44195568	     25.28076566	     -0.70347029	    -13.71900475	     10.22870646	     10.22870646	      2.82930367	      8.30914367	      7.94078823	      3.17428721	     -2.11164554	    -16.10020253	     15.28692912	     15.28692912	     15.84146124	     -8.28656354	     -7.50730243	     -8.80380453	      3.49060737	      0.59632677	    -12.20116558	    -13.28519768	    -13.44589773	     24.68256548	     47.35850841	      0.00000000	      0.00000000	     18.49261472	    -20.79969262	     -5.23359853	     71.70838955	     47.04884829	      0.00000000	      0.00000000
      2.14714286	     -3.00052382	     -2.79745928	     -7.18514389	      0.75520288	      0.92659213	      0.44362987	     25.20392633	     -0.64538320	    -13.40253318	     10.98962774	     10.98962774	      2.47529641	      7.95395849	      7.63270207	      2.40256312	     -2.16897275	    -16.18233491	     15.13461172	     15.13461172	     16.25759035	     -8.01945648	     -7.55728781	     -8.77474271	      3.50809484	      0.40101032	    -12.49910956	    -13.21485956	    -13.53368221	     25.11562558	     47.33554102	      0.00000000	      0.00000000	     18.41299149	    -20.65163869	     -5.63259340	     72.01661177	     47.08688188	      0.00000000	      0.00000000
      2.16071429	     -2.95108433	     -2.78362486	     -7.13642739	      0.75650443	      0.92565413	      0.44547215	     25.06332328	     -0.55329718	    -12.54599946	     11.74685772	     11.74685772	      1.42189431	      6.61995504	      5.37348902	      1.75165095	     -2.26676179	    -16.47081742	     15.17335604	     15.17335604	     17.02590160	     -7.17418899	     -7.10923407	     -8.68098024	      3.45261167	     -0.02171403	    -13.19476719	    -13.09365596	    -13.78997107	     27.19509547	     47.21386000	      0.00000000	      0.00000000	     17.84511996	    -20.19032498	     -7.29409679	     72.90017487	     47.24170821	      0.00000000	      0.00000000
      2.17428571	     -2.83358240	     -2.80684585	     -6.98669397	      0.75798218	      0.92476198	      0.44723596	     24.96924837	     -0.60681154	    -12.23103138	     13.06663502	     13.06663502	      1.22918168	      6.01138135	      4.82295403	      0.96422259	     -2.32344675	    -16.36363511	     15.04116225	     15.04116225	     17.44225083	     -6.95470780	     -7.05612665	     -8.59801519	      3.46533781	     -0.25534576	    -13.22022496	    -12.99496509	    -13.75001118	     27.33304163	     47.19686997	      0.00000000	      0.00000000	     17.73713342	    -20.05962012	     -7.31914792	     72.79320273	     47.24544942	      0.00000000	      0.00000000
      2.18785714	     -2.77110074	     -2.74982050	     -6.76887849	      0.75964460	      0.92366796	      0.44914385	     24.78828984	     -0.62308027	    -11.41509011	     14.12765461	     14.12765461	      0.03654952	      4.34961309	      1.38943478	      0.35603413	     -2.40230509	    -16.46222911	     15.21573185	     15.21573185	     18.54263695	     -6.03826935	     -5.77114256	     -8.41365042	      3.37783445	     -0.56227996	    -13.55673090	    -12.85722098	    -13.28709187	     28.45705546	     47.03735136	      0.00000000	      0.00000000	     17.46265697	    -19.65618546	     -7.88567818	     72.60802168	     47.32106237	      0.00000000	      0.00000000
      2.20142857	     -2.64447608	     -2.83419642	     -6.49892315	      0.76142444	      0.92274854	      0.45107254	     24.60777070	     -0.61134659	    -11.08008946	     15.53399649	     15.53399649	      0.15534171	      3.51208531	      1.00655480	     -0.39807172	     -2.57267541	    -16.23342766	     15.18789458	     15.18789458	     18.92944621	     -5.90019144	     -5.75366703	     -8.33636747	      3.47546777	     -0.83571028	    -13.39100379	    -12.75035261	    -13.23616072	     28.59466056	     47.02301761	      0.00000000	      0.00000000	     17.21967815	    -19.46128971	     -7.81071598	     72.33464982	     47.31276323	      0.00000000	      0.00000000
      2.21500000	     -2.59184509	     -2.95012598	     -6.14494749	      0.76333117	      0.92192094	      0.45302409	     24.27455177	     -0.53819029	    -10.90660017	     16.51702198	     16.51702198	      0.35767979	      2.89873033	      0.71255812	     -1.04019873	     -2.81163559	    -15.86382735	     15.21984880	     15.21984880	     19.27853828	     -5.75687898	     -5.76712087	     -8.13049658	      3.62043160	     -1.07652580	    -13.20532284	    -12.45049506	    -13.17526114	     28.72661528	     47.01112949	      0.00000000	      0.00000000	     16.77479901	    -18.98087181	     -7.64108375	     72.05336755	     47.29428900	      0.00000000	      0.00000000
      2.22857143	     -2.57896022	     -2.85943362	     -5.86786294	      0.76509934	      0.92091102	      0.45526764	     24.37610793	     -0.50707788	     -9.75506530	     18.03380290	     18.03380290	      0.25604685	      0.51265617	     -1.04808967	     -1.44670402	     -2.95776258	    -15.94451493	     15.68636019	     15.68636019	     20.54564169	     -4.83684993	     -3.68446596	     -7.90803204	      3.52961228	     -1.28865851	    -13.15398269	    -12.47516884	    -12.35042721	     29.65394198	     46.85315842	      0.00000000	      0.00000000	     16.76727262	    -18.60714196	     -8.07312096	     70.60008924	     47.32773836	      0.00000000	      0.00000000
      2.24214286	     -2.49304274	     -2.94657912	     -5.51467262	      0.76700183	      0.92035434	      0.45744208	     24.16854448	     -0.43520915	     -9.53429864	     19.20318684	     19.20318684	      0.81993290	     -0.30154154	     -1.45142819	     -2.00237745	     -3.22993656	    -15.61592518	     15.92309687	     15.92309687	     20.77618081	     -4.80495952	     -3.61176326	     -7.82084399	      3.64727643	     -1.52328671	    -12.73156506	    -12.38349908	    -12.26329733	     29.89032499	     46.83489742	      0.00000000	      0.00000000	     16.27434837	    -18.33719130	     -7.91282602	     70.06765896	     47.30655904	      0.00000000	      0.00000000
